PathFileType	4	(X/Y/Z)	/Users/itak/Documents/Research/Walk-IL/dataset/trc/00441_00167.trc
DataRate	CameraRate	NumFrames	NumMarkers	Units	OrigDataRate	OrigDataStartFrame	OrigNumFrames
100.000000	100.000000	4	53	mm	100.000000	325	520
Frame#	Time	RPSI			LPSI			L3			STRN			T10			C7			CLAV			RBAK			LBAK			LSHO			LUPA			LAEL			LAOL			LWTS			LWPS			LFRA			LIFD			LHPS			LHTS			RSHO			RUPA			RAEL			RAOL			RWTS			RWPS			RFRA			RIFD			RHTS			RHPS			RBHD			LFHD			RFHD			LBHD			LHIP			RHIP			RASI			LASI			LKNE			LTHI			LANK			LTIP			LTOE			LMT1			LMT5			LHEE			RKNE			RTHI			RANK			RTIP			RTOE			RMT1			RMT5			RHEE			
		X1	Y1	Z1	X2	Y2	Z2	X3	Y3	Z3	X4	Y4	Z4	X5	Y5	Z5	X6	Y6	Z6	X7	Y7	Z7	X8	Y8	Z8	X9	Y9	Z9	X10	Y10	Z10	X11	Y11	Z11	X12	Y12	Z12	X13	Y13	Z13	X14	Y14	Z14	X15	Y15	Z15	X16	Y16	Z16	X17	Y17	Z17	X18	Y18	Z18	X19	Y19	Z19	X20	Y20	Z20	X21	Y21	Z21	X22	Y22	Z22	X23	Y23	Z23	X24	Y24	Z24	X25	Y25	Z25	X26	Y26	Z26	X27	Y27	Z27	X28	Y28	Z28	X29	Y29	Z29	X30	Y30	Z30	X31	Y31	Z31	X32	Y32	Z32	X33	Y33	Z33	X34	Y34	Z34	X35	Y35	Z35	X36	Y36	Z36	X37	Y37	Z37	X38	Y38	Z38	X39	Y39	Z39	X40	Y40	Z40	X41	Y41	Z41	X42	Y42	Z42	X43	Y43	Z43	X44	Y44	Z44	X45	Y45	Z45	X46	Y46	Z46	X47	Y47	Z47	X48	Y48	Z48	X49	Y49	Z49	X50	Y50	Z50	X51	Y51	Z51	X52	Y52	Z52	X53	Y53	Z53	

326	3.25	227.2846984863281	897.9900512695312	375.9748840332031	292.1554260253906	917.2042846679688	251.7776184082031	264.11962890625	1006.701721191406	320.2174072265625	499.7244567871094	1199.639038085938	465.6346740722656	257.7861938476562	1131.968627929688	307.8583679199219	306.4814453125	1398.464477539062	358.9046325683594	467.9176025390625	1314.616333007812	449.7231140136719	203.0300445556641	1276.30712890625	396.3630065917969	337.5807189941406	1357.026245117188	255.1474761962891	467.1253967285156	1378.94482421875	254.7947845458984	535.1763305664062	1269.029174804688	174.5990905761719	627.2227172851562	1072.6201171875	177.7241821289062	533.3246459960938	1028.865600585938	169.9284210205078	709.2826538085938	907.7086181640625	297.6594543457031	722.6382446289062	882.1510009765625	229.7754516601562	672.821533203125	997.5585327148438	199.2162628173828	771.3351440429688	755.385009765625	328.5093688964844	755.7396850585938	812.297607421875	250.9447937011719	757.2567749023438	834.7957153320312	318.31884765625	273.0588989257812	1363.394409179688	529.10498046875	212.8924255371094	1301.182739257812	577.8978881835938	171.3009948730469	1015.763427734375	617.0247192382812	152.4640808105469	1001.058471679688	552.7723388671875	275.5726928710938	812.0525512695312	636.5157470703125	188.6628875732422	797.5978393554688	643.1062622070312	167.0597991943359	957.52392578125	626.486328125	268.5617065429688	653.1246337890625	639.3898315429688	278.58056640625	711.7575073242188	652.8302612304688	201.9574432373047	710.7445068359375	649.8983154296875	329.1780090332031	1596.909912109375	473.7564392089844	526.9597778320312	1610.11669921875	416.0308532714844	456.3096923828125	1614.488403320312	525.48681640625	412.6376953125	1596.05224609375	315.4505615234375	462.4527587890625	823.047119140625	198.7217712402344	285.2818603515625	806.0220947265625	560.8084106445312	397.2718200683594	858.466552734375	542.3027954101562	519.458740234375	852.1654052734375	315.0327758789062	375.8127136230469	404.3023986816406	209.2735290527344	438.4801025390625	553.6696166992188	216.8712615966797	169.9355163574219	51.80735015869141	100.3275756835938	314.9809265136719	260.4916381835938	170.5461578369141	299.947509765625	38.06132125854492	293.2989807128906	227.5596618652344	45.02248001098633	268.7531127929688	294.9106750488281	41.46197128295898	177.458740234375	98.614990234375	66.33519744873047	104.8352813720703	457.098876953125	450.3639526367188	628.3035888671875	353.3785095214844	692.4528198242188	612.5092163085938	581.8016967773438	40.20646286010742	699.4295043945312	493.2158508300781	318.8148803710938	668.8072509765625	761.8900146484375	141.9478302001953	760.5401611328125	732.9482421875	117.0368957519531	698.4730224609375	672.8966064453125	87.05605316162109	779.9864501953125	554.9907836914062	16.20636177062988	626.5140991210938	
327	3.26	237.6447296142578	896.2371215820312	384.0491638183594	302.3985900878906	915.8555297851562	259.8405456542969	274.3199462890625	1004.726379394531	328.1542053222656	508.9716491699219	1198.3017578125	474.1242370605469	267.5476684570312	1130.030639648438	316.2216796875	315.0740966796875	1396.718872070312	367.4242553710938	476.8570251464844	1313.1923828125	458.1824951171875	212.0207977294922	1274.1630859375	404.7285461425781	346.151611328125	1355.47021484375	263.6197509765625	475.7965393066406	1377.389282226562	263.0624694824219	543.0599365234375	1267.046508789062	182.5924987792969	633.8822631835938	1070.045532226562	184.9659271240234	539.5947875976562	1026.86474609375	178.1438140869141	715.8005981445312	904.3466796875	304.0805358886719	728.5358276367188	878.9369506835938	236.0516510009766	679.177978515625	994.6577758789062	206.0097198486328	776.9563598632812	751.4447021484375	333.9585571289062	761.2290649414062	808.7626953125	256.7611389160156	763.3301391601562	830.9805908203125	324.1820983886719	281.7751770019531	1361.338623046875	537.6094360351562	221.8740386962891	1298.778564453125	586.35986328125	181.4102935791016	1013.265563964844	625.1737670898438	162.4906921386719	998.6444091796875	560.9605712890625	285.2817077636719	809.40576171875	644.1924438476562	198.5811462402344	795.1224365234375	650.9083862304688	177.1122436523438	955.0075073242188	634.5862426757812	278.1362609863281	650.5438232421875	647.1611938476562	288.2862243652344	709.0668334960938	660.6329956054688	211.6819458007812	708.2872314453125	657.7514038085938	337.1845703125	1595.473388671875	481.6177978515625	534.9295043945312	1609.074096679688	423.9038696289062	464.2814331054688	1613.614624023438	533.3352661132812	420.6817932128906	1594.335571289062	323.3764953613281	472.3840026855469	821.7333984375	206.2615966796875	296.1924743652344	804.7869873046875	568.9822998046875	408.0654296875	857.3565063476562	550.2610473632812	529.6934814453125	850.50537109375	322.5951232910156	382.9901123046875	403.5228881835938	213.7615509033203	446.9288940429688	552.4686889648438	222.7703704833984	171.4312133789062	55.16139984130859	100.1463928222656	319.9671325683594	261.0461730957031	173.0682220458984	299.9429931640625	38.01951217651367	293.3475036621094	228.1191558837891	45.57733917236328	268.7360229492188	295.5191650390625	41.34901428222656	177.6165618896484	100.4718856811523	71.53839111328125	104.4707107543945	469.3898010253906	449.8034057617188	636.2617797851562	365.1953430175781	691.8941040039062	621.1163330078125	585.2972412109375	37.64585876464844	700.8207397460938	504.2796020507812	316.6381225585938	674.8836059570312	768.8746948242188	131.6015472412109	763.7838745117188	739.156005859375	108.7539596557617	701.3162841796875	677.7518310546875	79.92390441894531	782.2503051757812	557.8763427734375	15.68794059753418	627.4669799804688	
328	3.27	248.1803283691406	894.7988891601562	392.4088745117188	312.8009033203125	914.581298828125	268.1432800292969	284.6964111328125	1002.988647460938	336.3248901367188	518.323486328125	1197.279541015625	482.7726745605469	277.4027709960938	1128.308959960938	324.7932739257812	323.7286071777344	1395.217529296875	376.0623474121094	485.8701171875	1312.067993164062	466.7774658203125	221.0921783447266	1272.229614257812	413.2125244140625	354.7948913574219	1354.137817382812	272.2311401367188	484.5397338867188	1376.085327148438	271.4302673339844	550.91259765625	1265.2900390625	190.5942993164062	640.2493896484375	1067.56103515625	191.9671630859375	545.5433349609375	1025.0849609375	186.1966094970703	721.9183959960938	901.0225830078125	310.2437438964844	733.960693359375	875.7265625	242.0735015869141	685.1752319335938	991.802490234375	212.5386505126953	781.9713134765625	747.5042114257812	339.2186584472656	766.1845703125	805.2034301757812	262.3534545898438	768.9223022460938	827.1715087890625	329.8091125488281	290.5036926269531	1359.544555664062	546.2137451171875	230.8391876220703	1296.64501953125	594.8926391601562	191.4484252929688	1011.015014648438	633.331787109375	172.472900390625	996.4862060546875	569.1558837890625	295.0214538574219	807.0593872070312	651.8755493164062	208.5511169433594	792.8674926757812	658.6966552734375	187.1196899414062	952.72509765625	642.6842041015625	287.8988342285156	648.2677612304688	654.937744140625	298.1623229980469	706.716064453125	668.4488525390625	221.5322265625	706.0847778320312	665.5698852539062	345.2384948730469	1594.30810546875	489.628173828125	542.9564819335938	1608.308227539062	431.883056640625	472.3146667480469	1613.026000976562	541.302734375	428.7304992675781	1592.864135742188	331.4435119628906	482.5382690429688	820.4867553710938	214.0697174072266	307.2799377441406	803.8954467773438	577.4677734375	419.0596923828125	856.6052856445312	558.4239501953125	540.1234741210938	849.0648193359375	330.3934936523438	390.61669921875	402.8316345214844	218.6310424804688	455.779541015625	551.3632202148438	229.0128784179688	173.1927795410156	58.9610710144043	100.0575866699219	325.3570251464844	261.8171691894531	175.8625946044922	299.9309692382812	37.98347473144531	293.4130249023438	228.7893981933594	46.19609451293945	268.7829284667969	296.2064208984375	41.25565719604492	177.8552093505859	102.7184753417969	77.37725067138672	104.2313003540039	481.49072265625	449.4594116210938	644.1406860351562	376.8646850585938	691.3959350585938	629.8150634765625	588.2052001953125	35.67715454101562	701.7796020507812	515.2113037109375	314.7418518066406	680.7784423828125	775.7754516601562	120.3763809204102	766.2677612304688	745.0084228515625	100.0824508666992	703.4520874023438	682.3988037109375	72.58050537109375	783.9617919921875	559.9390258789062	16.01715469360352	628.0504760742188	
329	3.28	258.8558349609375	893.7548828125	400.9874267578125	323.3873901367188	913.3988037109375	276.642333984375	295.2286987304688	1001.546569824219	344.7107849121094	527.78271484375	1196.588134765625	491.5579528808594	287.3222961425781	1126.854736328125	333.5149841308594	332.4601745605469	1393.996826171875	384.7973937988281	494.9655456542969	1311.259521484375	475.4854736328125	230.2416381835938	1270.5546875	421.8033752441406	363.5118408203125	1353.056396484375	280.9652099609375	493.3563537597656	1375.061157226562	279.8787841796875	558.7341918945312	1263.78857421875	198.5951995849609	646.338623046875	1065.216552734375	198.7551116943359	551.2021484375	1023.578369140625	194.0877990722656	727.641845703125	897.76806640625	316.1446533203125	738.9171752929688	872.5634765625	247.8312072753906	690.8251342773438	989.0396118164062	218.8197631835938	786.3884887695312	743.5945434570312	344.2659301757812	770.6100463867188	801.6618041992188	267.699951171875	774.034423828125	823.3961181640625	335.1826171875	299.2607421875	1358.036499023438	554.9019775390625	239.7990417480469	1294.809448242188	603.481689453125	201.4225311279297	1009.036071777344	641.492919921875	182.4325408935547	994.61181640625	577.3497314453125	304.8110961914062	805.0396728515625	659.5817260742188	218.5756225585938	790.869140625	666.4655151367188	197.0867309570312	950.7049560546875	650.7718505859375	297.8522338867188	646.319580078125	662.6959228515625	308.2110290527344	704.7405395507812	676.2598266601562	231.5079193115234	704.15673828125	673.339111328125	353.3465576171875	1593.43603515625	497.7826232910156	551.0444946289062	1607.84716796875	439.9617309570312	480.4151916503906	1612.728271484375	549.38525390625	436.7915344238281	1591.6884765625	339.6470336914062	492.9441528320312	819.2891845703125	222.1473693847656	318.4848937988281	803.4423217773438	586.2267456054688	430.1622619628906	856.2864990234375	566.7573852539062	550.738037109375	847.8482666015625	338.456787109375	398.7804565429688	402.1990661621094	223.9484252929688	465.1006164550781	550.3357543945312	235.6653442382812	175.2565155029297	63.2403678894043	100.1178359985352	331.2089538574219	262.7931823730469	178.9865417480469	299.9053955078125	37.96002578735352	293.4858703613281	229.59228515625	46.86535263061523	268.9151306152344	296.9615478515625	41.18888854980469	178.1847839355469	105.4301300048828	83.89899444580078	104.2103958129883	493.4898681640625	449.45654296875	651.9957885742188	388.3158569335938	691.0316162109375	638.5558471679688	590.7241821289062	34.3949089050293	702.4586791992188	526.07421875	313.2946166992188	686.6052856445312	782.5930786132812	108.6400756835938	768.0285034179688	750.5415649414062	91.32725524902344	704.9594116210938	686.9190063476562	65.41172790527344	785.2515258789062	561.4125366210938	17.11821365356445	628.4832153320312	
